<svg width="40" height="42" viewBox="0 0 40 42" fill="none" xmlns="http://www.w3.org/2000/svg">
<path fill-rule="evenodd" clip-rule="evenodd" d="M39.7008 9.2511C39.7155 9.30561 39.7231 9.36182 39.7232 9.4183V18.1959C39.7232 18.3086 39.6935 18.4192 39.637 18.5167C39.5805 18.6142 39.4993 18.695 39.4016 18.7511L32.0344 22.9927V31.3999C32.0344 31.6287 31.9128 31.8399 31.7144 31.9551L16.336 40.8079C16.3008 40.8279 16.2624 40.8407 16.224 40.8543C16.2096 40.8591 16.196 40.8679 16.1808 40.8719C16.0733 40.9002 15.9603 40.9002 15.8528 40.8719C15.8352 40.8671 15.8192 40.8575 15.8024 40.8511C15.7672 40.8383 15.7304 40.8271 15.6968 40.8079L0.3216 31.9551C0.223926 31.899 0.142769 31.8181 0.0863076 31.7206C0.0298467 31.6232 7.73915e-05 31.5125 0 31.3999L0 5.0671C0 5.0095 0.008 4.9535 0.0224 4.8991C0.0272 4.8807 0.0384 4.8639 0.0448 4.8455C0.0568 4.8119 0.068 4.7775 0.0856 4.7463C0.0976 4.7255 0.1152 4.7087 0.1296 4.6895C0.148 4.6639 0.1648 4.6375 0.1864 4.6151C0.2048 4.5967 0.2288 4.5831 0.2496 4.5671C0.2728 4.5479 0.2936 4.5271 0.32 4.5119L8.0088 0.085497C8.10614 0.0294814 8.21649 0 8.3288 0C8.44111 0 8.55145 0.0294814 8.6488 0.085497L16.3368 4.5119H16.3384C16.364 4.5279 16.3856 4.5479 16.4088 4.5663C16.4296 4.5823 16.4528 4.5967 16.4712 4.6143C16.4936 4.6375 16.5096 4.6639 16.5288 4.6895C16.5424 4.7087 16.5608 4.7255 16.572 4.7463C16.5904 4.7783 16.6008 4.8119 16.6136 4.8455C16.62 4.8639 16.6312 4.8807 16.636 4.8999C16.6507 4.95441 16.6583 5.01062 16.6584 5.0671V21.5143L23.0648 17.8255V9.4175C23.0648 9.3615 23.0728 9.3047 23.0872 9.2511C23.0928 9.2319 23.1032 9.2151 23.1096 9.1967C23.1224 9.1631 23.1336 9.1287 23.1512 9.0975C23.1632 9.0767 23.1808 9.0599 23.1944 9.0407C23.2136 9.0151 23.2296 8.9887 23.252 8.9663C23.2704 8.9479 23.2936 8.9343 23.3144 8.9183C23.3384 8.8991 23.3592 8.8783 23.3848 8.8631L31.0744 4.4367C31.1717 4.3806 31.2821 4.35108 31.3944 4.35108C31.5067 4.35108 31.6171 4.3806 31.7144 4.4367L39.4024 8.8631C39.4296 8.8791 39.4504 8.8991 39.4744 8.9175C39.4944 8.9335 39.5176 8.9479 39.536 8.9655C39.5584 8.9887 39.5744 9.0151 39.5936 9.0407C39.608 9.0599 39.6256 9.0767 39.6368 9.0975C39.6552 9.1287 39.6656 9.1631 39.6784 9.1967C39.6856 9.2151 39.696 9.2319 39.7008 9.2511ZM38.4416 17.8255V10.5263L35.7512 12.0751L32.0344 14.2151V21.5143L38.4424 17.8255H38.4416ZM30.7536 31.0295V23.7255L27.0976 25.8135L16.6576 31.7719V39.1447L30.7536 31.0295ZM1.2816 6.1751V31.0295L15.376 39.1439V31.7727L8.0128 27.6055L8.0104 27.6039L8.0072 27.6023C7.9824 27.5879 7.9616 27.5671 7.9384 27.5495C7.9184 27.5335 7.8952 27.5207 7.8776 27.5031L7.876 27.5007C7.8552 27.4807 7.8408 27.4559 7.8232 27.4335C7.8072 27.4119 7.788 27.3935 7.7752 27.3711L7.7744 27.3687C7.76 27.3447 7.7512 27.3159 7.7408 27.2887C7.7304 27.2647 7.7168 27.2423 7.7104 27.2167C7.7024 27.1863 7.7008 27.1535 7.6976 27.1223C7.6944 27.0983 7.688 27.0743 7.688 27.0503V27.0487V9.8639L3.972 7.7231L1.2816 6.1751ZM8.3296 1.3799L1.924 5.0671L8.328 8.7543L14.7328 5.0663L8.328 1.3799H8.3296ZM11.6608 24.3911L15.3768 22.2519V6.1751L12.6864 7.7239L8.9696 9.8639V25.9407L11.6608 24.3911ZM31.3944 5.7311L24.9896 9.4183L31.3944 13.1055L37.7984 9.4175L31.3944 5.7311ZM30.7536 14.2151L27.0368 12.0751L24.3464 10.5263V17.8255L28.0624 19.9647L30.7536 21.5143V14.2151ZM16.016 30.6639L25.4104 25.3007L30.1064 22.6207L23.7064 18.9359L16.3376 23.1783L9.6216 27.0447L16.016 30.6639Z" fill="#FF2D20"/>
</svg>
