<svg width="71" height="40" viewBox="0 0 71 40" fill="none" xmlns="http://www.w3.org/2000/svg">
<g clip-path="url(#clip0_7_183)">
<mask id="mask0_7_183" style="mask-type:luminance" maskUnits="userSpaceOnUse" x="0" y="1" width="70" height="38">
<path d="M0.998535 20C0.998535 30.4697 16.4427 38.9573 35.4933 38.9573C54.5439 38.9573 69.9882 30.4697 69.9882 20C69.9882 9.53047 54.5439 1.0428 35.4933 1.0428C16.4427 1.0428 0.998535 9.53047 0.998535 20Z" fill="white"/>
</mask>
<g mask="url(#mask0_7_183)">
<path d="M0.998535 20C0.998535 30.4697 16.4427 38.9573 35.4933 38.9573C54.5439 38.9573 69.9882 30.4697 69.9882 20C69.9882 9.53047 54.5439 1.0428 35.4933 1.0428C16.4427 1.0428 0.998535 9.53047 0.998535 20Z" fill="url(#paint0_radial_7_183)"/>
</g>
<mask id="mask1_7_183" style="mask-type:luminance" maskUnits="userSpaceOnUse" x="-1" y="-2" width="73" height="44">
<path d="M-0.438965 -1.11587H71.4252V41.1159H-0.438965V-1.11587Z" fill="white"/>
</mask>
<g mask="url(#mask1_7_183)">
<path d="M35.493 37.5497C53.7995 37.5497 68.6404 29.6924 68.6404 20C68.6404 10.3076 53.7995 2.45019 35.493 2.45019C17.1865 2.45019 2.3457 10.3076 2.3457 20C2.3457 29.6924 17.1865 37.5497 35.493 37.5497Z" fill="#777BB3"/>
</g>
<mask id="mask2_7_183" style="mask-type:luminance" maskUnits="userSpaceOnUse" x="-1" y="-2" width="73" height="44">
<path d="M-0.438965 -1.11587H71.4252V41.1159H-0.438965V-1.11587Z" fill="white"/>
</mask>
<g mask="url(#mask2_7_183)">
<path d="M19.7397 22.1759C21.245 22.1759 22.3688 21.8859 23.0798 21.3142C23.7832 20.7484 24.2691 19.768 24.5237 18.4006C24.7611 17.1224 24.6707 16.23 24.255 15.7483C23.8299 15.2564 22.9109 15.0069 21.5235 15.0069H19.1179L17.7843 22.1759H19.7397ZM11.8717 31.0068C11.7601 31.0068 11.654 30.9546 11.583 30.8644C11.5119 30.7744 11.4831 30.6558 11.5044 30.5412L15.0388 11.5433C15.0729 11.3596 15.227 11.2269 15.4062 11.2269H23.0235C25.4175 11.2269 27.1994 11.906 28.3194 13.2456C29.4454 14.5922 29.7931 16.4745 29.3528 18.8401C29.1737 19.8039 28.8655 20.699 28.4369 21.5003C28.0079 22.3026 27.4408 23.0449 26.7512 23.7071C25.9258 24.5142 24.9916 25.0994 23.977 25.4438C22.9785 25.7836 21.6962 25.9559 20.1657 25.9559H17.0813L16.2004 30.6903C16.1663 30.8741 16.0123 31.0068 15.8331 31.0068H11.8717Z" fill="black"/>
<path d="M19.4263 15.3979H21.5233C23.1978 15.3979 23.7794 15.7818 23.977 16.0105C24.3049 16.3904 24.3668 17.1912 24.1561 18.3264C23.9193 19.5972 23.4804 20.4983 22.8513 21.0043C22.2073 21.5223 21.1602 21.7848 19.7396 21.7848H18.2381L19.4263 15.3979ZM23.0233 10.8358H15.4059C15.0475 10.8358 14.7395 11.1012 14.6711 11.4687L11.1368 30.4666C11.0941 30.6959 11.1518 30.933 11.2939 31.1132C11.4361 31.2935 11.648 31.3978 11.8716 31.3978H15.8328C16.1913 31.3978 16.4993 31.1324 16.5677 30.7649L17.3896 26.3469H20.1655C21.7353 26.3469 23.0568 26.1681 24.0929 25.8155C25.1586 25.4538 26.139 24.8405 27.0067 23.9927C27.7243 23.303 28.3155 22.5287 28.7634 21.6912C29.2114 20.8535 29.5333 19.9193 29.7201 18.9146C30.1836 16.4245 29.807 14.4305 28.601 12.9884C27.4068 11.56 25.5301 10.8358 23.0233 10.8358ZM17.33 22.5669H19.7396C21.3367 22.5669 22.5263 22.2526 23.3079 21.624C24.0897 20.9952 24.617 19.9458 24.8909 18.4752C25.1531 17.0633 25.0337 16.067 24.5327 15.4866C24.0312 14.9061 23.0282 14.6159 21.5233 14.6159H18.8092L17.33 22.5669ZM23.0233 11.6179C25.3149 11.6179 26.9866 12.2462 28.0374 13.5028C29.088 14.7595 29.4044 16.5135 28.9852 18.7655C28.8126 19.6932 28.5208 20.5413 28.11 21.3097C27.6986 22.0786 27.1615 22.7817 26.4978 23.4192C25.7068 24.1926 24.8281 24.7437 23.8611 25.0719C22.8942 25.401 21.6627 25.5648 20.1655 25.5648H16.7724L15.8328 30.6157H11.8716L15.4059 11.6179H23.0233Z" fill="white"/>
<path d="M38.4351 25.9559C38.3233 25.9559 38.2174 25.9038 38.1464 25.8136C38.0751 25.7235 38.0463 25.605 38.0676 25.4903L39.6311 17.0845C39.7798 16.2851 39.7431 15.7113 39.5279 15.4689C39.3961 15.3207 39.0004 15.0721 37.8302 15.0721H34.9978L33.0322 25.6395C32.998 25.8232 32.8439 25.9559 32.6647 25.9559H28.7347C28.6229 25.9559 28.517 25.9038 28.4458 25.8136C28.3747 25.7235 28.3459 25.6049 28.3672 25.4903L31.9016 6.49243C31.9357 6.30878 32.0898 6.17609 32.269 6.17609H36.1991C36.3108 6.17609 36.4168 6.22822 36.4879 6.31829C36.559 6.40849 36.5878 6.52697 36.5665 6.64168L35.7136 11.227H38.7606C41.0818 11.227 42.6558 11.6545 43.5726 12.5341C44.5071 13.4313 44.7987 14.8661 44.4394 16.7988L42.795 25.6395C42.7608 25.8232 42.6068 25.9559 42.4275 25.9559H38.4351Z" fill="black"/>
<path d="M36.1993 5.78501H32.2693C31.9108 5.78501 31.6028 6.05039 31.5344 6.41783L28.0001 25.4157C27.9574 25.645 28.0151 25.8821 28.1573 26.0624C28.2995 26.2426 28.5114 26.3469 28.735 26.3469H32.665C33.0233 26.3469 33.3315 26.0815 33.3999 25.7141L35.3067 15.4631H37.8305C38.9987 15.4631 39.2438 15.7238 39.2537 15.735C39.3246 15.8147 39.4178 16.1835 39.2639 17.0099L37.7005 25.4157C37.6578 25.645 37.7155 25.8821 37.8577 26.0624C37.9999 26.2426 38.2118 26.3469 38.4354 26.3469H42.4278C42.7861 26.3469 43.0943 26.0815 43.1627 25.7141L44.8069 16.8735C45.1928 14.7982 44.8627 13.2415 43.8262 12.2462C42.837 11.2972 41.1802 10.8359 38.7609 10.8359H36.1678L36.9342 6.71632C36.9767 6.48705 36.9192 6.24982 36.777 6.06968C36.6348 5.88941 36.4229 5.78501 36.1993 5.78501ZM36.1993 6.56708L35.2597 11.6179H38.7609C40.9638 11.6179 42.4833 12.0197 43.3196 12.8221C44.1559 13.625 44.4065 14.926 44.0722 16.7243L42.4278 25.5649H38.4354L39.9988 17.1592C40.1767 16.203 40.1113 15.5507 39.8024 15.203C39.4934 14.8552 38.836 14.6811 37.8305 14.6811H34.6894L32.665 25.5649H28.735L32.2693 6.56708H36.1993Z" fill="white"/>
<path d="M50.6582 22.1759C52.1635 22.1759 53.2872 21.8859 53.9983 21.3142C54.7017 20.7485 55.1875 19.7682 55.4423 18.4006C55.6797 17.1224 55.5892 16.23 55.1734 15.7483C54.7483 15.2564 53.8293 15.0069 52.4419 15.0069H50.0364L48.7028 22.1759H50.6582ZM42.7903 31.0068C42.6787 31.0068 42.5726 30.9546 42.5016 30.8644C42.4305 30.7744 42.4015 30.6558 42.4229 30.5412L45.9572 11.5433C45.9915 11.3596 46.1455 11.2269 46.3248 11.2269H53.942C56.3361 11.2269 58.1178 11.906 59.238 13.2456C60.364 14.592 60.7116 16.4744 60.2714 18.8401C60.092 19.8039 59.7839 20.699 59.3554 21.5003C58.9263 22.3026 58.3593 23.0449 57.6697 23.7071C56.8442 24.5142 55.91 25.0994 54.8954 25.4438C53.8969 25.7836 52.6146 25.9559 51.0841 25.9559H47.9996L47.1191 30.6903C47.0848 30.8741 46.9309 31.0068 46.7516 31.0068H42.7903Z" fill="black"/>
<path d="M50.3446 15.3979H52.4416C54.1161 15.3979 54.6977 15.7818 54.8954 16.0105C55.2234 16.3904 55.2853 17.1912 55.0744 18.3263C54.8376 19.5972 54.3986 20.4983 53.7696 21.0043C53.1256 21.5223 52.0786 21.7848 50.6579 21.7848H49.1566L50.3446 15.3979ZM53.9417 10.8358H46.3243C45.966 10.8358 45.658 11.1012 45.5896 11.4687L42.0553 30.4666C42.0126 30.6959 42.0702 30.933 42.2124 31.1132C42.3546 31.2935 42.5664 31.3978 42.79 31.3978H46.7513C47.1096 31.3978 47.4178 31.1324 47.4861 30.7649L48.308 26.3469H51.0838C52.6536 26.3469 53.9751 26.1681 55.0113 25.8155C56.0769 25.4538 57.0575 24.8404 57.9253 23.9925C58.6429 23.3028 59.2338 22.5287 59.6817 21.6912C60.1297 20.8535 60.4516 19.9193 60.6384 18.9146C61.1019 16.4244 60.7253 14.4304 59.5194 12.9882C58.3251 11.56 56.4486 10.8358 53.9417 10.8358ZM48.2484 22.5669H50.6579C52.255 22.5669 53.4446 22.2526 54.2263 21.624C55.0082 20.9952 55.5353 19.9458 55.8093 18.4752C56.0715 17.0633 55.9521 16.067 55.4511 15.4866C54.9495 14.9061 53.9465 14.6159 52.4416 14.6159H49.7275L48.2484 22.5669ZM53.9417 11.6179C56.2332 11.6179 57.9049 12.2462 58.9557 13.5028C60.0065 14.7595 60.3227 16.5135 59.9035 18.7655C59.731 19.6932 59.4392 20.5413 59.0283 21.3097C58.617 22.0786 58.0799 22.7817 57.4161 23.4192C56.6251 24.1926 55.7464 24.7437 54.7795 25.0719C53.8125 25.401 52.581 25.5648 51.0838 25.5648H47.6907L46.7513 30.6157H42.79L46.3243 11.6179H53.9417Z" fill="white"/>
</g>
</g>
<defs>
<radialGradient id="paint0_radial_7_183" cx="0" cy="0" r="1" gradientUnits="userSpaceOnUse" gradientTransform="translate(21.7094 7.70758) scale(45.2966 47.3228)">
<stop stop-color="#AEB2D5"/>
<stop offset="0.3" stop-color="#AEB2D5"/>
<stop offset="0.75" stop-color="#484C89"/>
<stop offset="1" stop-color="#484C89"/>
</radialGradient>
<clipPath id="clip0_7_183">
<rect width="70.9859" height="40" fill="white"/>
</clipPath>
</defs>
</svg>
