<svg width="40" height="42" viewBox="0 0 40 42" fill="none" xmlns="http://www.w3.org/2000/svg">
<g clip-path="url(#clip0_7_159)">
<path d="M24.007 21C24.007 18.9325 22.2129 17.2565 19.9998 17.2565C17.7867 17.2565 15.9927 18.9325 15.9927 21C15.9927 23.0675 17.7867 24.7435 19.9998 24.7435C22.2129 24.7435 24.007 23.0675 24.007 21Z" fill="#61DAFB"/>
<path d="M28.2095 21C28.2095 9.9063 24.5339 0.913063 19.9998 0.913063C15.4657 0.913063 11.79 9.9063 11.79 21C11.79 32.0937 15.4657 41.087 19.9998 41.087C24.5339 41.087 28.2095 32.0937 28.2095 21Z" stroke="#61DAFB"/>
<path d="M24.1047 27.6421C34.3888 22.0952 40.8879 14.6249 38.6209 10.9566C36.3538 7.28827 26.1791 8.81115 15.895 14.358C5.61085 19.9049 -0.88826 27.3752 1.3788 31.0435C3.64586 34.7118 13.8206 33.1889 24.1047 27.6421Z" stroke="#61DAFB"/>
<path d="M15.8952 27.6421C26.1793 33.1889 36.354 34.7118 38.6211 31.0435C40.8881 27.3752 34.389 19.9049 24.1049 14.358C13.8208 8.81113 3.64607 7.28826 1.37901 10.9566C-0.888046 14.6248 5.61106 22.0952 15.8952 27.6421Z" stroke="#61DAFB"/>
</g>
<defs>
<clipPath id="clip0_7_159">
<rect width="42" height="40" fill="white" transform="matrix(0 -1 1 0 0 42)"/>
</clipPath>
</defs>
</svg>
